<svg width="94" height="48" viewBox="0 0 94 48" fill="none" xmlns="http://www.w3.org/2000/svg">
<path d="M77.7883 34.4006C77.1753 34.8459 76.6243 35.2796 76.0424 35.6612C75.0798 36.3172 73.9633 36.7155 72.8007 36.8178C71.0722 36.9469 68.7074 35.536 68.7695 33.4851C68.7831 33.0533 68.723 32.6215 68.6939 32.1512C68.2554 32.6986 67.8345 33.2692 67.365 33.8012C65.9954 35.3432 64.6491 36.9257 63.2116 38.4099C62.3347 39.3158 61.1087 39.5009 59.9137 39.258C58.9068 39.0518 58.2744 38.2326 57.7506 37.3864C57.0716 36.2915 57.1686 35.0579 57.2501 33.8725C57.3976 31.8871 57.675 29.9134 57.8981 27.9164L51.6786 31.1662C51.9211 31.7831 52.1422 32.3382 52.3576 32.901C53.0618 34.7283 52.9822 36.5518 52.3712 38.3887C51.456 41.0914 49.8872 43.5297 47.8026 45.4897C46.9354 46.3224 45.9267 46.9932 44.689 47.2245C43.7403 47.3999 42.7995 47.6293 41.8353 47.3035C41.587 47.2187 41.2921 47.2303 41.0749 47.1011C39.4511 46.1373 38.7004 44.657 38.582 42.8124C38.4133 40.1331 39.6335 37.9801 41.1777 35.9446C42.4115 34.3235 43.9402 32.9935 45.4844 31.6828C45.7637 31.4457 45.8277 31.2973 45.5949 30.9793C44.9586 30.1138 44.365 29.2137 43.7442 28.3366C41.9362 25.7769 41.9983 23.1323 43.4804 20.4935C44.5823 18.539 46.1168 16.9623 48.21 16.0371C48.6731 15.827 49.1762 15.7183 49.6853 15.7183C50.1944 15.7183 50.6975 15.827 51.1606 16.0371C51.8066 16.3185 52.0453 16.837 52.086 17.5097C52.1694 18.9207 52.2276 20.3374 52.4119 21.7368C52.5244 22.5965 52.8503 23.4311 53.0773 24.2773C53.1956 24.7264 53.3256 25.241 52.9337 25.5591C52.5419 25.8771 52.1267 25.509 51.7698 25.3239C50.9822 24.9249 50.5108 24.2426 50.2178 23.4446C49.7891 22.2881 49.3992 21.1161 48.984 19.9519C48.7997 19.4353 48.6465 19.3621 48.1498 19.5914C46.4039 20.3991 44.914 23.3694 46.7725 25.3085C47.6746 26.2491 48.4816 27.2784 49.341 28.2615C49.8473 28.8397 49.9656 28.8397 50.6989 28.5429C53.1704 27.5078 55.6691 26.5479 58.2841 25.9214C58.389 25.8795 58.484 25.8163 58.5632 25.7361C58.6423 25.6558 58.7038 25.5601 58.7439 25.455C59.1028 24.4912 59.4112 23.4889 59.7604 22.5117C59.8876 22.1947 60.0427 21.8897 60.2241 21.5999C60.5985 20.9523 61.1455 20.7364 61.7857 21.1219C62.2863 21.42 62.7159 21.8225 63.0447 22.3016C63.3971 22.8229 63.6273 23.4162 63.7183 24.0377C63.8092 24.6592 63.7587 25.293 63.5705 25.8925C62.6238 29.1693 61.7198 32.4461 60.7983 35.7403C60.7668 35.8148 60.7503 35.8946 60.7498 35.9754C60.7789 36.1431 60.8332 36.305 60.8778 36.4689C61.0449 36.4424 61.2055 36.3849 61.3512 36.2993C62.3037 35.4068 63.2717 34.5298 64.1757 33.6007C66.1351 31.571 68.0556 29.5086 69.9956 27.4519C70.1724 27.2614 70.3143 27.0416 70.4146 26.8023C71.3846 24.5298 72.6572 22.4596 74.4574 20.7499C76.2034 19.0864 78.2811 18.1458 80.7564 18.3116C82.2735 18.4137 83.6663 19.4681 84 20.7537C84.2522 21.7175 83.9282 22.556 83.3269 23.2962C83.0572 23.6277 82.8069 23.5544 82.644 23.1439C82.547 22.9029 82.481 22.6504 82.384 22.4095C81.932 21.2703 80.9873 20.9195 79.8912 21.4843C78.865 22.0124 78.0968 22.8335 77.3693 23.6913C75.2353 26.174 73.5088 28.8956 72.4088 31.9797C72.278 32.3821 72.1972 32.799 72.1683 33.221C72.1217 33.7549 72.3759 33.9149 72.8531 33.6682C73.9084 33.1227 74.6922 32.2514 75.4313 31.3686C76.9716 29.5317 78.4576 27.6504 79.9552 25.7788C80.7021 24.844 81.7225 24.6049 82.7313 25.1601C83.7013 25.6921 84.1959 26.9122 83.773 27.9261C83.3851 28.8397 82.9253 29.7187 82.4888 30.6092C82.0252 31.5556 81.6798 32.5271 81.7671 33.6065C81.8428 34.5086 82.3123 34.8864 83.2046 34.7418C84.2635 34.5543 85.2313 34.0268 85.9594 33.2403C87.7422 31.4033 89.4513 29.4951 91.1972 27.6292C91.8219 26.9662 92.4795 26.3301 93.1546 25.7171C93.2943 25.5918 93.6978 25.5244 93.7715 25.6034C93.857 25.7005 93.9212 25.8142 93.96 25.9374C93.9987 26.0605 94.0112 26.1903 93.9965 26.3185C93.8598 26.7526 93.6819 27.1728 93.465 27.5733C91.9227 30.8193 89.9479 33.753 86.9972 35.9041C86.0082 36.5955 84.9545 37.1907 83.8506 37.6813C81.1793 38.9265 78.6865 37.5136 77.9513 34.9307C77.8969 34.7707 77.8523 34.6146 77.7883 34.4006ZM47.8162 33.9592C47.1934 34.6165 46.6018 35.2179 46.0372 35.8424C44.5241 37.5194 43.1778 39.312 42.3164 41.413C42.0448 42.078 41.8799 42.7622 42.0992 43.4774C42.1351 43.4837 42.1719 43.4837 42.2078 43.4774C42.2836 43.4472 42.3569 43.4111 42.427 43.3694C44.8066 41.907 46.6591 39.7337 47.7192 37.1609C48.1285 36.1682 48.3943 35.1235 47.8162 33.9592Z" fill="black"/>
<path d="M14.6104 27.1609C13.8752 27.0375 13.1341 26.9469 12.4066 26.7889C10.2514 26.3185 8.09414 25.8579 5.95632 25.3201C4.66238 24.9963 3.40335 24.5336 2.13075 24.1308C2.05036 24.1146 1.97553 24.0781 1.91348 24.0248C1.82026 23.9012 1.73412 23.7725 1.65546 23.6393C1.76449 23.555 1.88717 23.4898 2.01823 23.4465C2.92419 23.3193 3.83208 23.1516 4.74385 23.1073C8.71686 22.9145 12.6976 22.7642 16.6648 22.6023C17.4156 22.5714 18.1741 22.6023 18.9171 22.5136C19.3307 22.4679 19.7218 22.3031 20.0423 22.0394C23.2102 19.1713 25.9746 15.9369 28.6168 12.5945C29.3326 11.6886 29.9748 10.7268 30.6693 9.80349C31.2338 9.05368 31.8488 8.33857 32.3958 7.5772C33.1155 6.57874 33.7848 5.54365 34.489 4.5317C34.877 3.95344 35.3096 3.41181 35.7131 2.84897C36.1865 2.18976 36.6618 1.54211 37.1176 0.859764C37.785 -0.130984 39.4301 -0.310244 40.2351 0.557143C40.8462 1.2125 40.9044 2.00857 40.7686 2.85475C40.433 4.94998 40.1866 7.06255 39.7793 9.14427C39.3913 11.1508 38.8093 13.1227 38.3515 15.1196C37.8393 17.317 37.3582 19.5221 36.8674 21.7252C36.7859 22.0876 36.8208 22.2862 37.3058 22.3575C38.1146 22.4695 38.9096 22.6639 39.6784 22.9377C40.5494 23.2557 40.9956 23.9843 41.1023 24.8864C41.1741 25.4974 40.7531 25.9889 40.0644 26.3262C39.0576 26.8178 37.9615 26.9045 36.8849 27.0876C36.8047 27.1021 36.7237 27.1118 36.6424 27.1165C35.9925 27.1339 35.684 27.4404 35.5385 28.0996C34.8945 31.0313 34.1457 33.9419 33.521 36.8775C32.9041 39.7842 32.3919 42.7122 31.8216 45.6285C31.7626 45.9476 31.656 46.2562 31.5054 46.5441C31.4523 46.6601 31.3663 46.7581 31.2578 46.8262C31.1494 46.8942 31.0233 46.9293 30.8951 46.927C30.7668 46.9248 30.6421 46.8853 30.5361 46.8135C30.4302 46.7417 30.3476 46.6407 30.2987 46.5229C30.0985 46.0088 29.9535 45.4751 29.8661 44.9307C29.4188 42.5192 29.1433 40.0793 29.0417 37.6293C28.9408 35.4897 29.1678 33.3887 29.449 31.2684C29.5926 30.1929 29.7963 29.1231 30.0078 28.0572C30.0679 27.7642 29.9884 27.6562 29.7265 27.635C29.1076 27.5888 28.4888 27.5136 27.8699 27.5175C25.6914 27.531 23.5109 27.5175 21.3381 27.635C20.7833 27.664 20.2071 28.0321 19.7125 28.3521C17.5475 29.7476 15.691 31.519 13.8073 33.2576C11.7917 35.1216 9.70817 36.8987 7.38218 38.3791C5.73039 39.4374 3.91121 40.2122 2.00077 40.6709C1.70924 40.7525 1.4022 40.763 1.10569 40.7016C0.809187 40.6402 0.531954 40.5087 0.297502 40.3182C-0.0730273 40.031 -0.0904868 39.6975 0.206325 39.4064C0.731246 38.8908 1.29127 38.4116 1.88244 37.9724C4.71088 35.9427 7.35696 33.6894 9.96036 31.386C11.427 30.0881 12.8955 28.7916 14.366 27.4963C14.4654 27.4184 14.5697 27.3469 14.6783 27.2823L14.6104 27.1609ZM32.8459 15.1273L32.7411 15.0907L25.5944 22.3883L25.6972 22.5309C25.8737 22.5309 26.0503 22.5309 26.2249 22.5309C27.6294 22.4885 29.0358 22.423 30.4404 22.4095C30.9215 22.4095 31.1504 22.2303 31.2571 21.7754C31.5985 20.3432 31.971 18.9168 32.3182 17.4847C32.5045 16.7021 32.6674 15.9118 32.842 15.1273H32.8459Z" fill="black"/>
<path d="M61.791 15.3162C61.8919 14.2195 62.0878 13.142 63.1878 12.4249C64.1577 11.7908 65.9347 12.3401 65.9735 13.8224C66.0104 15.1717 65.4362 16.2395 64.6777 17.2572C64.3265 17.7256 63.9308 18.1632 63.537 18.6065C63.1432 19.0498 63.0287 18.992 62.7435 18.5313C62.1396 17.5648 61.8104 16.4537 61.791 15.3162Z" fill="black"/>
<path d="M55.9405 45.715V47.0354C55.9472 47.1064 55.9295 47.1776 55.8902 47.2373C55.8201 47.2837 55.7354 47.303 55.6519 47.2916C55.5387 47.2951 55.4259 47.2766 55.3197 47.2373C55.2439 47.204 55.1708 47.1648 55.1011 47.1201C55.0334 47.0527 55.0006 46.664 55.0006 45.9538C55.0006 45.5477 55.0006 44.868 55.0181 43.9428C55.0356 43.0177 55.0334 42.5117 55.0334 42.4552C55.0368 42.3977 55.0324 42.34 55.0203 42.2836C55.0203 42.2597 54.9875 42.2489 54.9481 42.2489C54.8848 42.2448 54.8213 42.2448 54.758 42.2489L54.4126 42.2923C54.3187 42.2923 54.2269 42.1989 54.1351 42.0143C54.0588 41.8809 54.0118 41.7328 53.9974 41.58C53.9933 41.5466 53.9992 41.5127 54.0143 41.4826C54.0295 41.4524 54.0532 41.4274 54.0826 41.4106C54.5009 41.2821 54.9317 41.1977 55.3678 41.1587C56.108 41.0515 56.5503 40.9987 56.6945 41.0002C56.7479 41.0054 56.7997 41.0214 56.8466 41.0472C56.8936 41.0729 56.9348 41.1079 56.9677 41.15C57.0481 41.222 57.0987 41.321 57.1098 41.428C57.1126 41.5332 57.0948 41.6379 57.0574 41.7364C57.0207 41.8254 56.9533 41.8986 56.8672 41.9427C56.7279 41.9976 56.5798 42.027 56.4301 42.0295L56.0629 42.0621C56.0279 42.0621 56.0104 42.1316 56.0104 42.2684C55.9958 42.5942 55.9805 43.1299 55.9645 43.8755C55.9485 44.6211 55.9405 45.2343 55.9405 45.715Z" fill="#CCB22C"/>
<path d="M55.6791 45.715C55.6791 45.2318 55.6865 44.6167 55.7026 43.8703C55.7106 43.4976 55.7183 43.1763 55.726 42.9074L55.7485 42.257C55.7489 42.1866 55.7539 42.1133 55.77 42.05C55.7781 42.0178 55.7945 41.966 55.8315 41.9172C55.8711 41.8649 55.9417 41.8105 56.0405 41.8029V41.8009L56.4076 41.7687L56.4164 41.7677H56.4262C56.5386 41.7658 56.6493 41.7435 56.7543 41.7043C56.7816 41.6884 56.8031 41.6654 56.8149 41.6369C56.8371 41.5764 56.8463 41.5127 56.8461 41.4484C56.8404 41.4092 56.8236 41.372 56.7934 41.3449L56.7758 41.3302L56.7621 41.3117C56.7512 41.2977 56.7369 41.2862 56.7211 41.2775C56.707 41.2698 56.6913 41.2652 56.6752 41.2629C56.6145 41.2643 56.4892 41.2748 56.2866 41.299C56.0685 41.325 55.7749 41.3647 55.4057 41.4181L55.392 41.4201C55.0121 41.454 54.6363 41.5251 54.27 41.63C54.2868 41.7189 54.3176 41.8049 54.3627 41.884L54.3705 41.8976C54.4028 41.9624 54.4301 42.0012 54.4487 42.0236L54.726 41.9884L54.7338 41.9875H54.9487V41.9865C54.9866 41.9865 55.0448 41.9911 55.1039 42.0168C55.1581 42.0403 55.2624 42.11 55.2787 42.2472C55.2921 42.3159 55.2983 42.3854 55.2953 42.4552C55.2953 42.5122 55.2982 43.02 55.2807 43.9474C55.2633 44.8701 55.2631 45.5486 55.2631 45.9543C55.2631 46.3068 55.2718 46.5729 55.2875 46.756C55.2946 46.8388 55.3029 46.8988 55.311 46.9396C55.3446 46.9585 55.3793 46.9755 55.4145 46.9914C55.488 47.0182 55.5656 47.0318 55.644 47.0295L55.6664 47.0285L55.6791 47.0304V45.715ZM56.2026 47.0353H56.2016C56.2079 47.1575 56.1772 47.2785 56.1098 47.381L56.0805 47.4259L56.0356 47.4562C55.9243 47.5298 55.7919 47.5616 55.6596 47.5529C55.5129 47.5573 55.3666 47.5345 55.2289 47.4836L55.2221 47.4806L55.2143 47.4777C55.1262 47.4389 55.0414 47.3929 54.9604 47.341L54.9369 47.3254L54.9164 47.3058C54.8713 47.2609 54.8474 47.2093 54.8344 47.1769C54.8199 47.1407 54.8093 47.1021 54.8012 47.0656C54.785 46.9924 54.7738 46.9019 54.7651 46.8C54.7475 46.5945 54.7387 46.3113 54.7387 45.9543C54.7387 45.5477 54.7387 44.8653 54.7563 43.9377C54.7711 43.1541 54.7711 42.6725 54.7709 42.5109L54.4457 42.5529L54.4291 42.5548H54.4135C54.2725 42.5548 54.1625 42.4829 54.0873 42.4074C54.0163 42.3359 53.959 42.2429 53.9086 42.1437C53.814 41.978 53.7547 41.7945 53.7368 41.6047L53.7377 41.6037C53.7292 41.5215 53.7435 41.4383 53.7807 41.3644C53.8191 41.2883 53.8788 41.225 53.9526 41.1828L53.978 41.1691L54.0063 41.1603C54.442 41.0265 54.8909 40.9382 55.3451 40.8976C55.7095 40.845 56.0027 40.8049 56.2241 40.7785C56.4419 40.7524 56.6057 40.7375 56.6977 40.7384H56.7094L56.7211 40.7394C56.8095 40.7482 56.8952 40.7748 56.9731 40.8175C57.0377 40.853 57.0928 40.9016 57.142 40.9562L57.143 40.9552C57.2715 41.0704 57.3526 41.2288 57.3705 41.4006L57.3725 41.4113V41.4211C57.3762 41.5603 57.3527 41.699 57.3032 41.8293L57.3002 41.8361C57.2397 41.9832 57.1282 42.1035 56.9868 42.1759L56.976 42.1818L56.9633 42.1867C56.8004 42.2508 56.6276 42.2852 56.4526 42.2902L56.4535 42.2912L56.2719 42.3068C56.2578 42.6316 56.2426 43.1557 56.227 43.881C56.211 44.6257 56.2026 45.2369 56.2026 45.715V47.0353Z" fill="#CCB22C"/>
<path d="M64.4668 43.9168C64.4616 44.6027 64.3419 45.283 64.1127 45.93C63.8009 46.8377 63.3827 47.2916 62.8581 47.2916C62.1609 47.2916 61.632 46.9528 61.2757 46.2731C60.9757 45.6503 60.8303 44.9652 60.8517 44.2751C60.8595 43.6043 60.9761 42.9392 61.197 42.3054C61.4921 41.4367 61.8658 41.0023 62.3226 41.0023C62.4957 41.0214 62.6646 41.0676 62.8232 41.1391C63.009 41.2086 63.1445 41.2564 63.2297 41.2803C63.315 41.3042 63.3805 41.3259 63.4199 41.3411C63.46 41.3551 63.4982 41.374 63.5335 41.3976C63.9107 41.7051 64.1775 42.1257 64.2941 42.5964C64.414 43.0262 64.4722 43.4707 64.4668 43.9168ZM62.7882 41.8276C62.5055 41.8276 62.2665 42.2098 62.0713 42.9742C61.9315 43.4771 61.853 43.9947 61.8374 44.5162C61.8376 44.9627 61.8882 45.4078 61.9882 45.8431C62.091 46.2774 62.2243 46.4946 62.3904 46.4946C62.7073 46.4946 62.974 46.1102 63.186 45.3392C63.3339 44.8416 63.4154 44.3269 63.4286 43.8082C63.4313 43.3772 63.3762 42.9477 63.2647 42.5312C63.1292 42.0643 62.974 41.8276 62.7882 41.8276Z" fill="#CCB22C"/>
<path d="M62.3371 40.7406L62.3518 40.7416C62.5492 40.7634 62.7418 40.816 62.9231 40.8969C63.1056 40.965 63.229 41.0075 63.301 41.0277C63.3854 41.0514 63.4557 41.0746 63.5051 41.0931H63.5061C63.567 41.1143 63.6252 41.1434 63.6789 41.1791L63.6897 41.1859L63.6994 41.1947C64.1183 41.5363 64.4158 42.0029 64.5471 42.5258L64.6291 42.8685C64.6994 43.2134 64.7318 43.5649 64.7278 43.9174L64.7287 43.9183C64.7233 44.6334 64.5985 45.3435 64.3596 46.0179C64.0442 46.9346 63.5695 47.5539 62.8586 47.5541C62.4656 47.5541 62.108 47.4581 61.7971 47.2582C61.4876 47.0592 61.2387 46.7661 61.0442 46.3949L61.0393 46.3871C60.7211 45.7264 60.5675 44.9992 60.5901 44.267C60.5977 43.6569 60.6913 43.0514 60.8684 42.4681L60.9494 42.2191C61.1019 41.7707 61.2828 41.4097 61.5012 41.1566C61.7245 40.898 61.9992 40.7407 62.3225 40.7406H62.3371ZM62.3098 41.265C62.1804 41.2688 62.0442 41.3296 61.8977 41.4994C61.7416 41.6803 61.588 41.9707 61.4455 42.39L61.4446 42.392C61.2331 42.9988 61.122 43.6356 61.1145 44.2777L61.1135 44.2836C61.0937 44.9285 61.2289 45.569 61.508 46.1517L61.635 46.3656C61.7677 46.5633 61.9176 46.7115 62.0813 46.8168C62.2982 46.9562 62.5545 47.0297 62.8586 47.0297C63.1959 47.0295 63.5574 46.7419 63.8655 45.8451V45.8422C64.0849 45.2227 64.2003 44.5711 64.2053 43.9144V43.9135C64.2103 43.4924 64.1554 43.0723 64.0422 42.6664L64.0403 42.6595C63.9385 42.2489 63.7064 41.8817 63.3791 41.6107C63.3648 41.6021 63.3501 41.5938 63.3342 41.5883L63.3254 41.5853C63.2964 41.5741 63.2395 41.5551 63.1594 41.5326C63.062 41.5053 62.9163 41.4542 62.7317 41.3851L62.7239 41.3812L62.7151 41.3783C62.5865 41.3203 62.4499 41.2821 62.3098 41.265ZM62.8684 41.5717C63.0466 41.6013 63.1756 41.7278 63.2629 41.8578C63.339 41.971 63.4037 42.116 63.4612 42.2836L63.5168 42.4584L63.5178 42.4633C63.6353 42.9024 63.6935 43.3555 63.6907 43.8099V43.8148C63.6769 44.3564 63.592 44.8939 63.4377 45.4135C63.3289 45.8082 63.1997 46.128 63.0432 46.3549C62.886 46.5827 62.6709 46.7571 62.3909 46.7572C62.1747 46.7572 62.03 46.6108 61.9426 46.4691C61.8539 46.3252 61.7873 46.1306 61.7336 45.9037L61.7326 45.9017C61.6283 45.4472 61.5757 44.9822 61.5754 44.516V44.5082C61.5916 43.9657 61.6731 43.4268 61.8186 42.9037C61.9184 42.5144 62.035 42.1989 62.175 41.975C62.3127 41.7549 62.5122 41.5658 62.7883 41.5658L62.8684 41.5717ZM62.7785 42.0931C62.7563 42.0987 62.7003 42.1238 62.6194 42.2533C62.5211 42.4105 62.4206 42.667 62.3254 43.0394L62.3244 43.0443C62.1903 43.5267 62.1148 44.0236 62.0998 44.5238C62.1006 44.948 62.1494 45.371 62.2444 45.7845C62.2932 45.9904 62.344 46.1207 62.3889 46.1937C62.3992 46.2104 62.4092 46.2206 62.4153 46.2279C62.457 46.2188 62.5238 46.1842 62.6116 46.057C62.72 45.8999 62.831 45.6439 62.9338 45.2699L62.9348 45.265C63.0756 44.7912 63.1532 44.3008 63.1662 43.807L63.1584 43.5013C63.14 43.1984 63.0912 42.8978 63.0129 42.6039C62.948 42.3803 62.8848 42.2349 62.8284 42.1508C62.8055 42.1167 62.7878 42.1008 62.7785 42.0931Z" fill="#CCB22C"/>
<path d="M68.7207 44.7875C68.7207 44.4097 68.7338 43.9558 68.7601 43.4259C68.7863 42.896 68.814 42.3603 68.8431 41.8188C68.8352 41.6575 68.8455 41.4957 68.8737 41.3367C68.8934 41.2693 68.9524 41.2346 69.0508 41.2346C69.2122 41.2371 69.3723 41.2649 69.5251 41.3171C69.6934 41.3714 69.7764 41.4301 69.7764 41.4909C69.7764 42.0917 69.7677 42.5898 69.7502 42.985C69.6977 44.1686 69.6737 44.768 69.6737 44.7854C69.6554 45.2025 69.6974 45.6201 69.7983 46.0254C69.8242 46.1358 69.8883 46.2336 69.9794 46.3018C70.0704 46.3701 70.1827 46.4045 70.2966 46.399C70.6143 46.399 70.8044 45.9646 70.8671 45.0959C70.8889 44.7933 70.8999 44.3445 70.8999 43.7495V41.708C70.8862 41.5337 70.9018 41.3583 70.9458 41.189C70.9764 41.1347 71.0616 41.1086 71.2015 41.1086C71.3357 41.1146 71.4686 41.1372 71.5971 41.176C71.7676 41.2216 71.8528 41.2802 71.8528 41.3475V44.8549C71.8528 45.7482 71.7239 46.3917 71.466 46.7855C71.3697 46.9456 71.2318 47.0771 71.0669 47.1661C70.9019 47.2551 70.7159 47.2985 70.5283 47.2915C70.2914 47.2819 70.0601 47.2172 69.8529 47.1026C69.602 46.9755 69.3666 46.8203 69.1513 46.64C68.9911 46.4391 68.8884 46.1991 68.854 45.9451C68.765 45.5656 68.7202 45.1772 68.7207 44.7875Z" fill="#CCB22C"/>
<path d="M68.459 44.7874C68.459 44.404 68.4717 43.9457 68.498 43.4133C68.5242 42.8853 68.552 42.3512 68.5811 41.8118C68.574 41.6375 68.5848 41.463 68.6152 41.2913L68.6182 41.2766L68.6221 41.2629C68.6501 41.1673 68.711 41.0856 68.8008 41.0334C68.8837 40.9854 68.9739 40.9729 69.0508 40.9729H69.0547C69.2435 40.9758 69.4308 41.0076 69.6094 41.0686L69.6084 41.0696C69.7012 41.0997 69.7914 41.1359 69.8633 41.1858C69.9289 41.2314 70.0379 41.3301 70.0381 41.4905C70.0381 42.0933 70.0294 42.5958 70.0117 42.9963C69.9855 43.5878 69.9667 44.0335 69.9541 44.3333C69.9478 44.4831 69.9435 44.5972 69.9404 44.6741C69.9372 44.7557 69.9356 44.7876 69.9355 44.7854V44.7971C69.9227 45.0909 69.942 45.3848 69.9922 45.6741L70.0527 45.9622L70.0537 45.9651C70.0655 46.0153 70.0947 46.0605 70.1367 46.092C70.1788 46.1236 70.2311 46.1395 70.2842 46.137H70.2969C70.3045 46.1371 70.3616 46.1414 70.4375 45.968C70.5144 45.7923 70.5748 45.5023 70.6055 45.0774C70.6266 44.7845 70.6377 44.3428 70.6377 43.7493V41.7083C70.6245 41.5116 70.6428 41.3142 70.6924 41.1233L70.7002 41.0901L70.7178 41.0598C70.7779 40.9536 70.8761 40.9026 70.9541 40.8782C71.0323 40.8538 71.1186 40.8469 71.2012 40.8469H71.2129C71.3688 40.8539 71.5235 40.88 71.6729 40.925L71.6719 40.926C71.7664 40.9518 71.8599 40.9853 71.9355 41.0364C72.0112 41.0875 72.1152 41.1886 72.1152 41.3479V44.8547C72.1152 45.7601 71.9868 46.4687 71.6855 46.929L71.6846 46.928C71.5642 47.1248 71.3948 47.287 71.1914 47.3967C70.9852 47.508 70.7528 47.5626 70.5186 47.554L70.5176 47.553C70.24 47.5417 69.9685 47.4667 69.7256 47.3323V47.3313C69.4604 47.1961 69.2114 47.0319 68.9834 46.8411L68.9629 46.8245L68.9463 46.803C68.762 46.5718 68.6426 46.2968 68.5986 46.0051L68.5371 45.7043C68.5019 45.5024 68.4784 45.2986 68.4668 45.094L68.459 44.7874ZM71.1621 43.7493C71.1621 44.3457 71.1514 44.8022 71.1289 45.1145C71.0969 45.5578 71.031 45.9195 70.918 46.178C70.8062 46.4333 70.6129 46.6537 70.3086 46.6594L70.3096 46.6604L70.3076 46.6594C70.304 46.6595 70.3005 46.6614 70.2969 46.6614V46.6594C70.1265 46.6649 69.9589 46.6143 69.8223 46.512C69.6822 46.407 69.5831 46.2557 69.543 46.0852V46.0842C69.4377 45.6596 69.394 45.2224 69.4121 44.7854H69.4111C69.4111 44.7603 69.4361 44.1511 69.4883 42.9739C69.5046 42.6061 69.5127 42.1455 69.5137 41.592C69.495 41.5843 69.472 41.5756 69.4443 41.5667L69.4404 41.5657V41.5647C69.336 41.529 69.2272 41.508 69.1172 41.5002C69.1057 41.6017 69.0995 41.7038 69.1045 41.8059L69.1055 41.8196L69.1045 41.8333C69.0754 42.3742 69.0477 42.9094 69.0215 43.4387C68.9954 43.9658 68.9824 44.4152 68.9824 44.7874V44.7883C68.9821 45.0651 69.0063 45.3412 69.0537 45.6135L69.1094 45.885L69.1123 45.8977L69.1143 45.9094C69.1412 46.1086 69.2203 46.2972 69.3428 46.4573C69.4864 46.5754 69.6389 46.6823 69.7998 46.7756L69.9717 46.8684L69.9795 46.8733C70.1506 46.968 70.3422 47.0205 70.5381 47.0286C70.679 47.0338 70.8187 47.0025 70.9424 46.9358C71.0661 46.869 71.1692 46.7703 71.2412 46.6506L71.2461 46.6418L71.4658 46.7854L71.2471 46.6418C71.4614 46.3144 71.5908 45.7356 71.5908 44.8547V41.4485C71.574 41.4425 71.5537 41.4355 71.5293 41.429L71.5215 41.427C71.4149 41.3949 71.3047 41.3756 71.1934 41.3704C71.1868 41.3704 71.1806 41.3711 71.1748 41.3713C71.1576 41.4757 71.1529 41.582 71.1611 41.6877L71.1621 41.6975V43.7493Z" fill="#CCB22C"/>
<path d="M76.2783 44.9288V43.0741C76.2783 42.6543 76.2871 42.2677 76.3045 41.9144C76.322 41.5583 76.3657 41.3498 76.4357 41.2868C76.4687 41.2503 76.5099 41.222 76.5559 41.2043C76.5888 41.1919 76.6235 41.1846 76.6586 41.1826C76.6827 41.1826 76.7373 41.2108 76.8247 41.2477C76.8931 41.2809 76.9674 41.3001 77.0433 41.3042C77.1894 41.2449 77.3409 41.1999 77.4958 41.1695C77.7171 41.1296 77.9418 41.1114 78.1668 41.1152C78.3945 41.1196 78.6183 41.1759 78.8206 41.2798C79.023 41.3838 79.1986 41.5325 79.3339 41.7146C79.5973 41.9958 79.7521 42.3604 79.7711 42.744C79.7498 43.1688 79.5743 43.5715 79.2771 43.8777C79.082 44.1175 78.8451 44.3206 78.5777 44.4771C78.5099 44.5111 78.4449 44.5503 78.3832 44.5943C78.3643 44.6054 78.3484 44.6208 78.337 44.6394C78.3255 44.6579 78.3189 44.679 78.3176 44.7007L79.0105 45.7128C79.4709 46.3947 79.7011 46.7841 79.7011 46.8812C79.6852 46.9772 79.6384 47.0656 79.5678 47.1331C79.5358 47.1788 79.4938 47.2168 79.445 47.2443C79.3962 47.2717 79.3418 47.2879 79.2859 47.2916C79.1066 47.2916 78.7722 46.9695 78.2826 46.3252C78.0189 45.9603 77.7537 45.5919 77.487 45.2198C77.3559 44.9918 77.2684 44.8788 77.2444 44.8788C77.2204 44.8788 77.1898 44.9288 77.1854 45.033C77.181 45.1373 77.1854 45.4391 77.1854 45.943C77.1854 46.1211 77.181 46.31 77.1723 46.5098C77.1723 46.7118 77.157 46.9181 77.1504 47.1287C77.1504 47.1852 77.1045 47.2156 77.0127 47.2156C76.8741 47.215 76.7361 47.1975 76.6018 47.1635C76.4561 47.1287 76.3796 47.0896 76.3723 47.0462C76.3559 46.9515 76.3471 46.8556 76.3461 46.7595C76.3461 46.6097 76.3461 46.4729 76.3461 46.3469V46.0798C76.3461 45.8974 76.3461 45.7562 76.3461 45.6606C76.2936 45.185 76.2783 44.9418 76.2783 44.9288ZM77.2466 42.3857V43.9645C77.2419 43.9743 77.2404 43.9852 77.2422 43.9958C77.2441 44.0064 77.2492 44.0162 77.2568 44.0239C77.2645 44.0315 77.2744 44.0365 77.2851 44.0384C77.2957 44.0402 77.3067 44.0387 77.3165 44.034C77.4783 44.034 77.7427 43.8798 78.1121 43.5693C78.574 43.1842 78.805 42.7715 78.805 42.3314C78.805 42.1946 78.7635 42.1142 78.6826 42.0664C78.5662 42.0195 78.4408 41.9987 78.3154 42.0056C78.1083 42.0075 77.9021 42.0338 77.7012 42.0838C77.3996 42.1598 77.2466 42.2597 77.2466 42.3857Z" fill="#CCB22C"/>
<path d="M76.0166 43.0738C76.0166 42.6506 76.0253 42.26 76.043 41.9019C76.052 41.7179 76.0678 41.5609 76.0938 41.437C76.1067 41.3751 76.1237 41.3147 76.1465 41.2603C76.1656 41.2145 76.1974 41.1612 76.2441 41.1128L76.2412 41.1109C76.3018 41.0439 76.3777 40.992 76.4619 40.9595L76.4639 40.9585C76.5215 40.9369 76.5821 40.924 76.6436 40.9204H76.6582C76.707 40.9204 76.7476 40.9328 76.7637 40.938C76.7843 40.9448 76.8048 40.9529 76.8203 40.9595C76.8364 40.9663 76.8544 40.9746 76.8711 40.982L76.9268 41.0064L76.9395 41.0113C76.9639 41.0231 76.99 41.0316 77.0166 41.0367C77.1562 40.9845 77.2989 40.9413 77.4453 40.9126L77.4492 40.9117C77.6873 40.8687 77.929 40.849 78.1709 40.8531C78.4385 40.8582 78.7025 40.9242 78.9404 41.0464C79.1696 41.1641 79.3686 41.332 79.5254 41.5357L79.6338 41.6626C79.8732 41.9684 80.0139 42.341 80.0332 42.731V42.7574C80.009 43.2383 79.8113 43.693 79.4795 44.0425L79.4805 44.0435C79.2656 44.3077 79.0043 44.5314 78.71 44.7036L78.7031 44.7076L78.6953 44.7115C78.6825 44.7179 78.6707 44.7261 78.6582 44.7329L79.2266 45.565L79.2275 45.566C79.4587 45.9084 79.6348 46.1818 79.7539 46.3833C79.813 46.4834 79.8608 46.57 79.8945 46.6411C79.9113 46.6765 79.9269 46.7125 79.9385 46.7466C79.9484 46.776 79.9629 46.8259 79.9629 46.8814V46.9029L79.96 46.9243C79.9369 47.0628 79.8716 47.1893 79.7764 47.2915C79.7225 47.3659 79.6532 47.4282 79.5732 47.4732C79.4904 47.5197 79.3975 47.547 79.3027 47.5533L79.2949 47.5542H79.2861C79.1689 47.5542 79.0637 47.5039 78.9834 47.4536C78.8981 47.4001 78.8093 47.326 78.7188 47.2388C78.5373 47.064 78.3221 46.8101 78.0742 46.4839L78.0703 46.479C77.8634 46.1928 77.656 45.9036 77.4473 45.6128C77.4476 45.7103 77.4473 45.8202 77.4473 45.9429C77.4473 46.1252 77.4435 46.318 77.4346 46.521C77.434 46.7234 77.418 46.9474 77.4121 47.1372L77.4102 47.1363C77.4078 47.2462 77.357 47.3506 77.2568 47.4146C77.1728 47.4681 77.0797 47.4781 77.0127 47.4781C76.8539 47.4773 76.6949 47.4562 76.541 47.4175C76.4605 47.3983 76.381 47.3749 76.3154 47.3413C76.2676 47.3169 76.1393 47.2443 76.1133 47.0894L76.1143 47.0884C76.0957 46.9806 76.0852 46.8716 76.084 46.7622V45.6656C76.0342 45.2109 76.0168 44.9609 76.0166 44.9292V43.0738ZM78.5391 42.2964C78.4714 42.2752 78.4012 42.2632 78.3301 42.2671L78.3174 42.2681C78.131 42.2698 77.9454 42.2924 77.7646 42.3374C77.6286 42.3717 77.5494 42.4072 77.5088 42.4331V43.688C77.6225 43.621 77.768 43.516 77.9443 43.3677C78.3694 43.0132 78.5429 42.6681 78.543 42.3316C78.543 42.3162 78.5401 42.3048 78.5391 42.2964ZM76.54 44.9292C76.5409 44.9405 76.5554 45.1694 76.6064 45.6324L76.6084 45.646V46.7564L76.6143 46.8794C76.6147 46.8847 76.6157 46.8898 76.6162 46.8951L76.6631 46.9087L76.666 46.9097C76.741 46.9287 76.8176 46.9381 76.8945 46.9449C76.9015 46.7926 76.9101 46.6553 76.9102 46.5103V46.4986L76.9229 45.9429C76.9229 45.4491 76.9192 45.1335 76.9238 45.022C76.9269 44.9492 76.9394 44.8756 76.9678 44.8111C76.9817 44.7794 77.0038 44.7389 77.04 44.7027C77.0751 44.6676 77.1445 44.6168 77.2441 44.6167L77.3066 44.6236C77.3626 44.6368 77.4 44.6639 77.4092 44.6704C77.4324 44.6871 77.4506 44.7055 77.4629 44.7183C77.4885 44.7449 77.5134 44.7774 77.5371 44.8101C77.5827 44.8728 77.6375 44.9591 77.7002 45.0669L78.4912 46.1665C78.7327 46.4843 78.9292 46.7135 79.082 46.8609C79.1587 46.9347 79.2186 46.9823 79.2617 47.0093C79.2727 47.0162 79.2816 47.0207 79.2881 47.024C79.2977 47.0215 79.3078 47.021 79.3164 47.0161C79.331 47.0079 79.3441 46.9964 79.3535 46.9829L79.3682 46.9615L79.3867 46.9439C79.4053 46.9261 79.4168 46.9035 79.4268 46.8804C79.4248 46.876 79.4233 46.8709 79.4209 46.8658C79.3971 46.8154 79.3585 46.7443 79.3027 46.6499C79.1916 46.462 79.0222 46.1993 78.793 45.8599L78.0508 44.7749L78.0557 44.6851C78.0595 44.6201 78.0802 44.5568 78.1143 44.5015L78.1738 44.4263C78.191 44.4096 78.2105 44.3957 78.2305 44.3824C78.2986 44.3337 78.3708 44.2888 78.4453 44.2505C78.6856 44.1099 78.899 43.9278 79.0742 43.7124L79.0811 43.7036L79.0889 43.6949C79.3388 43.4373 79.4859 43.0999 79.5068 42.7437C79.488 42.4273 79.3604 42.1268 79.1426 41.8941L79.1328 41.8833L79.123 41.8706C79.0119 41.7211 78.8677 41.5988 78.7012 41.5132C78.5761 41.449 78.4407 41.4068 78.3018 41.3882L78.1621 41.3775C77.9553 41.374 77.7485 41.3898 77.5449 41.4263L77.5459 41.4273C77.4076 41.4544 77.2721 41.4945 77.1416 41.5474L77.0879 41.5689L77.0293 41.566C76.9186 41.56 76.8097 41.5323 76.71 41.4839C76.6914 41.476 76.6738 41.4679 76.6592 41.4615C76.6527 41.4586 76.6469 41.456 76.6416 41.4536C76.6374 41.4562 76.6331 41.4588 76.6299 41.4624C76.6242 41.4759 76.6163 41.5019 76.6074 41.5445C76.5896 41.6296 76.5749 41.7552 76.5664 41.9273C76.5492 42.2754 76.54 42.6576 76.54 43.0738V44.9292ZM79.0674 42.3316C79.0673 42.8752 78.7788 43.3554 78.2803 43.771C78.0902 43.9308 77.9188 44.0563 77.7686 44.1441C77.6387 44.2199 77.497 44.2808 77.3574 44.2915C77.3191 44.2995 77.2802 44.303 77.2412 44.2964C77.1774 44.2855 77.1184 44.2553 77.0723 44.2095C77.0262 44.1637 76.9955 44.1049 76.9844 44.0406C76.9783 44.0055 76.9785 43.9698 76.9844 43.9351V42.3853C76.9846 42.1988 77.1027 42.0725 77.2158 41.9976C77.328 41.9234 77.4751 41.8704 77.6367 41.8296C77.8536 41.7756 78.0772 41.7467 78.3008 41.7437C78.4238 41.7369 78.547 41.7505 78.665 41.7837L78.7803 41.8238L78.7988 41.8306L78.8164 41.8404C78.8987 41.889 78.9664 41.9598 79.0107 42.0533C79.053 42.1424 79.0674 42.2384 79.0674 42.3316Z" fill="#CCB22C"/>
<path d="M83.8371 42.922C83.8279 42.6449 83.8787 42.369 83.9862 42.1131C84.0937 41.8572 84.2553 41.6272 84.46 41.4387C84.6868 41.1908 84.9986 41.0359 85.3343 41.0044C85.4021 41.0137 85.4679 41.0343 85.5288 41.0652C85.6649 41.1284 85.7963 41.201 85.9222 41.2824C86.1819 41.4238 86.3951 41.6363 86.5364 41.8948C86.659 42.1889 86.7149 42.5063 86.7004 42.8243C86.7083 42.9632 86.6905 43.1023 86.6479 43.2348C86.6225 43.2945 86.5789 43.3449 86.5233 43.3787C86.4676 43.4126 86.4026 43.4283 86.3375 43.4237C86.2286 43.4303 86.1198 43.4104 86.0204 43.3657C85.921 43.3211 85.834 43.253 85.7671 43.1674C85.5793 42.8662 85.4942 42.5128 85.5244 42.1598C85.5244 42.0794 85.5004 42.0403 85.4545 42.0403C85.3627 42.0403 85.2359 42.125 85.0829 42.2966C84.9268 42.4458 84.8312 42.6467 84.8141 42.8612C84.8141 43.1233 84.9773 43.4208 85.3037 43.7538C85.6053 44.0557 85.9091 44.3575 86.2108 44.6616C86.517 45.0075 86.6904 45.4497 86.7004 45.9103C86.6713 46.2632 86.5041 46.5906 86.2348 46.8224C86.1233 46.9584 85.9852 47.0707 85.829 47.1524C85.6728 47.2341 85.5015 47.2837 85.3255 47.298C84.8461 47.3018 84.3811 47.1355 84.0141 46.8289C83.8267 46.691 83.674 46.5118 83.5682 46.3052C83.4624 46.0987 83.4063 45.8706 83.4043 45.6388C83.4038 45.5756 83.4204 45.5133 83.4524 45.4586C83.4703 45.433 83.4946 45.4124 83.523 45.3991C83.5514 45.3858 83.5828 45.3801 83.6141 45.3826C83.7431 45.3826 83.966 45.5498 84.2851 45.8842C84.6043 46.2187 84.8644 46.3881 85.0611 46.3881C85.2578 46.3881 85.3955 46.3403 85.4545 46.2426C85.506 46.1038 85.5269 45.9557 85.5157 45.8082C85.4982 45.4684 85.3476 45.1488 85.096 44.9178C84.8163 44.6196 84.5423 44.33 84.2742 44.0491C84.0002 43.7359 83.8454 43.337 83.8371 42.922Z" fill="#CCB22C"/>
<path d="M85.3701 40.7446C85.4637 40.7575 85.554 40.7868 85.6387 40.8286L85.6397 40.8276C85.7807 40.8932 85.9168 40.9686 86.0479 41.0522L86.1592 41.1177C86.3763 41.2569 86.5607 41.4413 86.7002 41.6577L86.7666 41.769L86.7735 41.7808L86.7783 41.7944C86.9121 42.1158 86.974 42.4616 86.9619 42.8091C86.9717 42.9801 86.9499 43.1518 86.8975 43.3149L86.8936 43.3267L86.8897 43.3374C86.8428 43.4478 86.7615 43.5408 86.6592 43.603C86.5826 43.6495 86.4966 43.6776 86.4082 43.6851H86.2403C86.1276 43.6782 86.0166 43.6515 85.9131 43.605C85.775 43.5429 85.6538 43.4478 85.5606 43.3286L85.5518 43.3179L85.5449 43.3062C85.3887 43.0555 85.2938 42.7735 85.2656 42.4829L85.2637 42.4858C85.1565 42.5883 85.0903 42.7254 85.0762 42.8716C85.0806 43.0279 85.1855 43.2579 85.4912 43.5698H85.4903L86.3965 44.4771L86.4024 44.4819L86.4072 44.4878C86.7544 44.88 86.9516 45.382 86.9629 45.9048V45.9185L86.9619 45.9321C86.9276 46.3472 86.7324 46.7317 86.4199 47.0073C86.289 47.1618 86.13 47.2902 85.9502 47.3843C85.7628 47.4823 85.5576 47.5419 85.3467 47.5591L85.3369 47.5601H85.3272C84.7911 47.5642 84.2712 47.3796 83.8584 47.0396C83.6385 46.8777 83.4593 46.6669 83.335 46.4243C83.2107 46.1816 83.1449 45.9136 83.1426 45.6411C83.1418 45.5308 83.1701 45.4219 83.2256 45.3267L83.2315 45.3169L83.2373 45.3081C83.2815 45.2449 83.3415 45.1944 83.4112 45.1616C83.4746 45.1318 83.5445 45.1193 83.6143 45.1216V45.1206C83.7001 45.1206 83.7781 45.1475 83.8408 45.1772C83.9057 45.2081 83.9708 45.2502 84.0352 45.2983C84.1637 45.3945 84.3107 45.5318 84.4746 45.7036C84.6263 45.8626 84.7561 45.9725 84.8623 46.0415C84.9717 46.1126 85.0354 46.1255 85.0615 46.1255C85.1408 46.1255 85.1915 46.1162 85.2197 46.106C85.2208 46.1056 85.2217 46.1044 85.2227 46.104C85.2495 46.0145 85.261 45.921 85.2539 45.8276V45.8218C85.24 45.5508 85.12 45.2955 84.919 45.1108L84.9112 45.104L84.9053 45.0972C84.626 44.7995 84.3525 44.5102 84.085 44.23L84.0772 44.2222C83.7626 43.8626 83.5848 43.4041 83.5752 42.9272V42.9263C83.5654 42.6128 83.6226 42.3006 83.7442 42.0112C83.8662 41.7206 84.0499 41.4594 84.2822 41.2456C84.5517 40.9591 84.9169 40.7805 85.3096 40.7437L85.3399 40.7407L85.3701 40.7446ZM85.3242 41.269C85.0998 41.2972 84.8904 41.3938 84.7246 41.5444L84.6377 41.6313C84.4606 41.7944 84.3204 41.9933 84.2276 42.2144C84.158 42.3801 84.1159 42.5557 84.1026 42.7339L84.0987 42.9136L84.0996 42.9165C84.1067 43.268 84.2372 43.6061 84.4688 43.8726C84.736 44.1525 85.0084 44.4417 85.2871 44.7388C85.5789 45.0135 85.7542 45.3887 85.7764 45.7886H85.7774C85.7914 45.9736 85.7648 46.1594 85.7002 46.3335L85.6914 46.3569L85.6787 46.3784C85.5432 46.6024 85.2744 46.6498 85.0615 46.6499C84.891 46.6499 84.7257 46.5781 84.5762 46.481C84.4235 46.3817 84.263 46.2403 84.0957 46.0649C83.9408 45.9026 83.8166 45.7893 83.7217 45.7183C83.7027 45.704 83.684 45.6939 83.669 45.6841C83.6772 45.8586 83.7218 46.0299 83.8018 46.186C83.8671 46.3134 83.954 46.4284 84.0586 46.5259L84.1699 46.6177L84.1758 46.6226L84.1826 46.6274C84.4995 46.8921 84.9003 47.0358 85.3145 47.0347C85.4517 47.0221 85.5852 46.9841 85.707 46.9204C85.8321 46.855 85.9431 46.7644 86.0322 46.6558L86.0469 46.6382L86.0635 46.6235C86.2775 46.4393 86.4111 46.1808 86.4375 45.9019C86.4257 45.5108 86.278 45.1356 86.0186 44.8403C85.7193 44.5387 85.4188 44.2398 85.1182 43.939L85.1162 43.937C84.7762 43.5901 84.5518 43.2284 84.5518 42.8608V42.8511L84.5528 42.8403C84.575 42.5615 84.699 42.3004 84.9014 42.1069C84.9816 42.0186 85.0625 41.9437 85.1436 41.8882C85.225 41.8325 85.3322 41.778 85.4541 41.7778C85.5682 41.7778 85.6728 41.8354 85.7324 41.936C85.7796 42.0157 85.7861 42.1018 85.7862 42.1597V42.1714L85.7852 42.1821C85.7603 42.4722 85.8287 42.7626 85.9795 43.0122C86.0194 43.061 86.0699 43.1004 86.1279 43.1265C86.1885 43.1537 86.2548 43.1656 86.3213 43.1616L86.3389 43.1606L86.3565 43.1626C86.3672 43.1633 86.3778 43.1602 86.3867 43.1548C86.3941 43.1503 86.3983 43.1432 86.4024 43.1362C86.4311 43.0399 86.4442 42.9397 86.4385 42.8394L86.4375 42.8257L86.4385 42.812C86.451 42.5382 86.4031 42.2653 86.2998 42.0112C86.1827 41.8016 86.0091 41.6278 85.7969 41.5122L85.7881 41.5083L85.7803 41.5024C85.6645 41.4277 85.5431 41.3614 85.418 41.3032L85.4102 41.2993C85.383 41.2855 85.3541 41.2754 85.3242 41.269Z" fill="#CCB22C"/>
<path d="M85.9157 20.1695H84.9941V19.9313H87.1128V20.1695H86.1912V22.5329H85.9157V20.1695Z" fill="#7F7E7E"/>
<path d="M90.2733 19.9313V22.5329H90.0086V20.451L88.9797 22.2019H88.8489L87.8199 20.4634V22.5329H87.5537V19.9313H87.7825L88.9189 21.8601L90.046 19.9313H90.2733Z" fill="#7F7E7E"/>
</svg>
